<?xml version="1.0" encoding="utf-8"?>
<!-- Generator: Adobe Illustrator 26.5.0, SVG Export Plug-In . SVG Version: 6.00 Build 0)  -->
<svg version="1.1" id="Layer_1" xmlns="http://www.w3.org/2000/svg" xmlns:xlink="http://www.w3.org/1999/xlink" x="0px" y="0px"
	 viewBox="0 0 152 59" style="enable-background:new 0 0 152 59;" xml:space="preserve">
<style type="text/css">
	.st0{fill:#F7931E;}
</style>
<path d="M41,40.6L70.3,3.9H43.2V0h35.3L49.3,36.6h27.1v3.9L41,40.6L41,40.6z"/>
<path d="M117.8,40.6h-4.4L98.2,9.5L83,40.6h-4.4L98.2,0L117.8,40.6z"/>
<path d="M124.3,0h18.5v3.9h-14.5v36.6h-4V0z"/>
<path d="M65.2,59c-1.1,0-2.1-0.2-3.2-0.6s-1.8-1.1-2.6-1.8c-0.8-0.8-1.4-1.7-1.8-2.6c-0.5-1.1-0.6-2-0.6-3.2c0-1.1,0.2-2.1,0.6-3.2
	c0.5-0.9,1.1-1.8,1.8-2.6c0.8-0.8,1.7-1.4,2.6-1.8c1.1-0.5,2.1-0.6,3.2-0.6s2.1,0.2,3.2,0.6c1.1,0.5,1.8,1.1,2.6,1.8
	c0.8,0.8,1.4,1.7,1.8,2.6c0.5,0.9,0.6,2,0.6,3.2c0,1.1-0.2,2.1-0.6,3.2c-0.5,1.1-1.1,1.8-1.8,2.6c-0.8,0.8-1.7,1.4-2.6,1.8
	C67.4,58.8,66.3,59,65.2,59z M65.2,44.3c-0.9,0-1.7,0.2-2.6,0.5c-0.8,0.3-1.5,0.8-2.1,1.4c-0.6,0.6-1.1,1.4-1.4,2.1
	c-0.3,0.8-0.5,1.7-0.5,2.6c0,0.9,0.2,1.7,0.5,2.6c0.3,0.8,0.8,1.5,1.4,2.1c0.6,0.6,1.2,1.1,2.1,1.4c0.8,0.3,1.7,0.5,2.6,0.5
	s1.7-0.2,2.6-0.5c0.8-0.3,1.5-0.8,2.1-1.4c0.6-0.6,1.1-1.4,1.4-2.1c0.3-0.8,0.6-1.7,0.6-2.6s-0.2-1.7-0.6-2.6
	c-0.3-0.8-0.8-1.5-1.4-2.1s-1.2-1.1-2.1-1.4C66.9,44.4,66.1,44.3,65.2,44.3z"/>
<path d="M77.2,59V42.6l12,12.4V44.7l1.7-2.1V59l-12-12.4v10.3L77.2,59z"/>
<path d="M94.1,59V42.6h1.7v14.9h9.1V59H94.1z"/>
<path d="M109.4,42.6V59h-1.7V42.6H109.4z"/>
<path d="M114,59V42.6L126,55V44.7l1.7-2.1V59l-12-12.4v10.3L114,59z"/>
<path d="M132.3,42.6h10.6v1.5h-10.6V42.6z M132.3,50.1h9.2v1.5h-9.2V50.1z M132.3,57.5h10.6V59h-10.6V57.5z"/>
<path class="st0" d="M40.9,20.5c0,2.8-0.6,5.5-1.6,7.9S36.8,33,35,34.9c-1.9,1.9-4,3.3-6.5,4.3c-2.4,1-5.1,1.6-7.9,1.6
	s-5.5-0.6-7.9-1.6c-2.4-1.1-4.6-2.5-6.5-4.4s-3.3-3.9-4.4-6.5c-1.1-2.3-1.6-5-1.6-7.8s0.6-5.5,1.6-7.9S4.2,8,6.1,6.2
	c1.9-1.9,4-3.3,6.5-4.3c2.4-1.1,5.1-1.7,7.9-1.7s5.5,0.6,7.9,1.6c1.9,0.8,3.6,1.8,5.1,3.1c-0.9,0.9-1.9,1.9-2.9,2.9
	c-1.1-0.9-2.4-1.7-3.9-2.3c-2-0.8-4-1.3-6.3-1.3c-2.2,0-4.3,0.5-6.3,1.3s-3.8,2.1-5.2,3.6c-1.5,1.5-2.6,3.2-3.6,5.3
	c-0.8,2-1.3,4-1.3,6.3C4,22.9,4.5,25,5.3,27s2.1,3.8,3.6,5.3s3.2,2.7,5.2,3.6s4,1.3,6.3,1.3c2.2,0,4.3-0.5,6.3-1.3s3.8-2.1,5.2-3.6
	c1.5-1.5,2.6-3.2,3.6-5.3c0.8-2,1.3-4,1.3-6.3c0-2.2-0.5-4.3-1.3-6.3c-0.1-0.3-0.3-0.6-0.4-0.8c1.1-0.8,2.3-1.4,3.5-2.2
	c0.2,0.4,0.4,0.8,0.6,1.3C40.3,15,40.9,17.7,40.9,20.5z"/>
<path class="st0" d="M20.5,20.4C27.3,13.6,34,6.9,40.8,0.1c0,2.6,0,5.4,0,8C34,12.2,27.3,16.4,20.5,20.4z"/>
<path class="st0" d="M30.6,20.5c0,5.6-4.5,10.1-10.1,10.1c-3.1,0-5.9-1.4-7.8-3.7c-0.2-0.3-0.4-0.5-0.6-0.8
	c-1.1-1.6-1.8-3.6-1.8-5.7c0-5.6,4.5-10.1,10.1-10.1c2.1,0,4,0.7,5.7,1.8C25.2,13,24.2,14,23.2,15c-0.8-0.5-1.8-0.7-2.8-0.7
	c-3.4,0-6.2,2.7-6.2,6.2c0,1,0.3,2,0.7,2.8c0.3,0.6,0.7,1.1,1.1,1.6c1.1,1.1,2.6,1.8,4.3,1.8c3.4,0,6.2-2.7,6.2-6.2
	c0-0.7-0.1-1.2-0.3-1.8c1.1-0.7,2.3-1.4,3.5-2.1C30.4,17.9,30.6,19.2,30.6,20.5z"/>
</svg>
